<?xml version="1.0" encoding="UTF-8" standalone="no"?>
<svg
   xmlns:dc="http://purl.org/dc/elements/1.1/"
   xmlns:cc="http://creativecommons.org/ns#"
   xmlns:rdf="http://www.w3.org/1999/02/22-rdf-syntax-ns#"
   xmlns:svg="http://www.w3.org/2000/svg"
   xmlns="http://www.w3.org/2000/svg"
   xmlns:sodipodi="http://sodipodi.sourceforge.net/DTD/sodipodi-0.dtd"
   xmlns:inkscape="http://www.inkscape.org/namespaces/inkscape"
   width="225.27121mm"
   height="77.359566mm"
   viewBox="0 0 225.27122 77.359565"
   version="1.1"
   id="svg8"
   inkscape:version="1.0.1 (3bc2e813f5, 2020-09-07)"
   sodipodi:docname="navbar-logo2.svg">
  <defs
     id="defs2">
    <style
       id="style75">.cls-1{fill:none;stroke:#000;stroke-miterlimit:10;stroke-width:6px;}</style>
  </defs>
  <sodipodi:namedview
     id="base"
     pagecolor="#ffffff"
     bordercolor="#666666"
     borderopacity="1.0"
     inkscape:pageopacity="0.0"
     inkscape:pageshadow="2"
     inkscape:zoom="0.35"
     inkscape:cx="884.48994"
     inkscape:cy="347.68978"
     inkscape:document-units="mm"
     inkscape:current-layer="g44"
     inkscape:document-rotation="0"
     showgrid="false"
     inkscape:window-width="1920"
     inkscape:window-height="1001"
     inkscape:window-x="-9"
     inkscape:window-y="-9"
     inkscape:window-maximized="1"
     fit-margin-top="0"
     fit-margin-left="0"
     fit-margin-right="0"
     fit-margin-bottom="0" />
  <metadata
     id="metadata5">
    <rdf:RDF>
      <cc:Work
         rdf:about="">
        <dc:format>image/svg+xml</dc:format>
        <dc:type
           rdf:resource="http://purl.org/dc/dcmitype/StillImage" />
        <dc:title></dc:title>
      </cc:Work>
    </rdf:RDF>
  </metadata>
  <g
     inkscape:label="Warstwa 1"
     inkscape:groupmode="layer"
     id="layer1"
     transform="translate(-139.19598,-56.173745)">
    <g
       id="g44"
       inkscape:label="harissa Logo biale bez tla"
       transform="matrix(0.35277777,0,0,-0.35277777,588.28652,295.29666)">
      <g
         id="g352"
         transform="matrix(3.0641521,0,0,3.0641521,3423.8326,-1373.7375)">
        <path
           d="m -1327.7782,656.74989 c 0.3341,-0.15465 0.6682,-0.30924 1.0027,-0.46383 l 2.6615,-1.23138 -2.4274,-1.49833 -1.3298,-2.2473 c 1.7705,1.82673 4.0851,3.34262 6.6451,2.52635 1.0003,-0.31936 1.9672,-0.7018 2.8567,-1.26663 2.6053,-1.65542 4.3973,-4.3377 5.435,-7.2031 1.1537,-3.18425 1.5715,-7.22309 0.4413,-10.46419 -1.0339,-2.96602 -3.1784,-5.08693 -5.4212,-7.17291 l -8.7206,-8.11223 c 1.9482,-3.55085 2.9244,-7.67257 2.4655,-11.71776 -0.4646,-4.09607 -2.0181,-7.59552 -5.035,-10.43945 -3.9053,-3.68224 -9.4063,-5.49006 -14.2724,-7.52906 l -0.3017,-0.12678 -0.3162,-0.12626 -0.3191,-0.12158 -0.3221,-0.11645 -0.3244,-0.11171 -0.3274,-0.10627 -0.3295,-0.10068 -0.3311,-0.0954 -0.3337,-0.0901 -0.3358,-0.0841 -0.3376,-0.0785 -0.339,-0.0727 -0.3406,-0.0668 -0.3423,-0.0603 -0.3434,-0.0545 -0.345,-0.0478 -0.3462,-0.0416 -0.3467,-0.0349 -0.3473,-0.028 -0.3483,-0.0216 -0.3492,-0.0142 -0.3491,-0.007 h -0.3496 l -0.3499,0.008 -0.3498,0.0151 -0.3491,0.0222 -0.3496,0.0305 -0.3492,0.0385 -0.3479,0.0463 -0.3452,0.0542 -0.217,0.0392 -0.221,0.0438 -0.226,0.049 -0.2312,0.0549 -0.2351,0.0607 -0.2388,0.0663 -0.2409,0.0721 -0.2443,0.0787 -0.2462,0.0854 -0.2471,0.0923 -0.2474,0.0993 -0.2484,0.10665 -0.2472,0.11504 -0.2464,0.12318 -0.2441,0.13152 -0.2424,0.14113 -0.2393,0.15138 -0.2351,0.16164 -0.2305,0.17318 -0.2255,0.18528 -0.218,0.19805 -0.2104,0.21201 -0.2013,0.22688 -0.1896,0.2422 -0.177,0.25778 -0.1612,0.27361 -0.1438,0.28924 -0.1234,0.30411 -0.1012,0.31796 -0.077,0.33045 -0.051,0.34046 -0.023,0.34481 v 0.31142 l 0.026,0.30469 0.048,0.29719 0.068,0.28886 0.088,0.27905 0.1047,0.26726 0.1201,0.25579 0.1345,0.24458 0.1466,0.23124 0.1575,0.21983 0.1411,0.17606 c 0.9747,1.21286 1.9663,2.47841 3.0077,3.63513 0.4175,0.46441 0.8241,0.89004 1.3857,1.17947 0.1907,0.0983 0.3035,0.15312 0.4801,0.28521 1.3988,1.04283 2.9726,1.62036 4.7256,1.62074 2.3561,3.9e-4 4.2083,-0.99668 6.3679,-1.6963 0.8737,-0.28303 1.7447,-0.47691 2.6443,-0.45819 l 0.063,0.12664 0.084,0.19676 0.073,0.19926 0.062,0.2042 0.051,0.20894 0.04,0.21477 0.028,0.22143 0.016,0.23637 v 0.14497 0.15261 l -0.01,0.15356 -0.014,0.15311 -0.019,0.1528 -0.024,0.15337 -0.03,0.1542 -0.035,0.15369 -0.041,0.15408 -0.046,0.15478 -0.051,0.15388 -0.056,0.15446 -0.062,0.15421 -0.066,0.15426 -0.071,0.1535 -0.076,0.15318 -0.08,0.1526 -0.084,0.15151 -0.088,0.15043 -0.093,0.15003 -0.097,0.14863 -0.1003,0.14683 -0.104,0.14511 -0.1076,0.14407 -0.1105,0.14229 -0.1135,0.14023 -0.1162,0.13792 -0.1194,0.13607 -0.1221,0.13369 -0.1228,0.13062 -0.1254,0.12812 -0.1265,0.1244 -0.1769,0.16843 -0.1797,0.16299 -0.1836,0.15965 -0.1877,0.15664 -0.1915,0.15299 -0.1948,0.14856 -0.1985,0.14626 -0.2019,0.14189 -0.2054,0.13844 -0.2083,0.13479 -0.2112,0.131 -0.2146,0.12754 -0.2175,0.12357 -0.2202,0.12004 -0.2221,0.11575 -0.2248,0.11229 -0.2273,0.10882 -0.2298,0.10467 -0.2312,0.10062 -0.2331,0.0966 -0.2351,0.0932 -0.237,0.0887 -0.2383,0.0852 -0.2391,0.0808 -0.2411,0.077 -0.2421,0.0733 -0.2425,0.069 -0.2433,0.065 -0.2445,0.0608 -0.2444,0.0567 -0.2447,0.0527 -0.2473,0.0494 -0.2985,0.0551 -0.3027,0.0527 -0.3043,0.0492 -0.3057,0.0467 -0.3072,0.0436 -0.308,0.0408 -0.3101,0.0378 -0.3107,0.0356 -0.3119,0.0323 -0.313,0.03 -0.3138,0.0274 -0.3152,0.0251 -0.3156,0.0224 -0.3164,0.0201 -0.3169,0.0176 -0.318,0.0154 -0.3179,0.0133 -0.3159,0.0111 -0.3216,0.009 -0.317,0.007 -0.319,0.005 -0.3193,0.003 -0.3195,10e-4 -0.3189,-5.1e-4 -0.3191,-0.003 -0.3187,-0.004 -0.3192,-0.005 -0.3174,-0.007 -0.3179,-0.009 -0.3171,-0.0103 -0.3165,-0.0115 -0.315,-0.0127 -0.3955,-0.018 -0.3955,-0.0198 -0.3962,-0.0222 -0.3961,-0.0235 -0.3962,-0.0258 -0.3966,-0.028 -0.3968,-0.0296 -0.3964,-0.0314 -0.3966,-0.0331 -0.3968,-0.0351 -0.3973,-0.0369 -0.3977,-0.038 -0.3966,-0.0403 -0.3971,-0.0416 -0.3972,-0.0433 -0.3975,-0.0447 -0.3966,-0.0462 -0.3972,-0.0478 -0.3973,-0.0494 -0.397,-0.0503 -0.3969,-0.0522 -0.3966,-0.0532 -0.397,-0.0543 -0.3964,-0.056 -0.3958,-0.0569 -0.3966,-0.0585 -0.3956,-0.0592 -0.3958,-0.0607 -0.3959,-0.0614 -0.395,-0.0625 -0.3948,-0.0638 -0.3929,-0.0645 -0.9238,-0.15459 -0.9236,-0.1601 -0.9233,-0.1651 -0.9242,-0.1701 -0.9235,-0.17477 -0.9233,-0.17965 -0.9236,-0.18388 -0.9233,-0.18836 -0.9229,-0.19311 -0.9229,-0.19695 -0.9227,-0.20093 -0.9224,-0.20528 -0.9215,-0.20875 -0.9216,-0.2131 -0.9208,-0.21606 -0.9204,-0.21964 -0.9197,-0.2231 -0.919,-0.22618 -0.9189,-0.22964 -0.9176,-0.23201 -0.917,-0.23547 -0.9162,-0.23797 -0.9154,-0.24053 -0.9144,-0.2431 -0.9139,-0.24541 -0.912,-0.24765 -0.9114,-0.24983 -0.9106,-0.25175 -0.9089,-0.25367 -0.908,-0.25489 -0.9067,-0.25726 -0.9053,-0.25848 -1.0187,-0.29271 -1.0176,-0.29559 -1.0172,-0.29757 -1.0169,-0.29957 -1.0157,-0.30193 -1.0154,-0.30418 -1.0154,-0.30629 -1.0139,-0.30809 -1.0141,-0.31033 -1.0138,-0.31174 -1.0127,-0.31398 -1.0126,-0.31552 -1.0125,-0.31758 -1.0116,-0.31885 -1.0112,-0.32084 -1.0108,-0.32174 -1.0109,-0.32392 -1.0097,-0.32507 -1.0099,-0.3268 -1.0098,-0.32757 -1.0087,-0.32917 -1.0088,-0.33052 -1.0085,-0.33136 -1.0085,-0.33282 -1.0076,-0.33353 -1.0079,-0.3345 -1.0074,-0.3359 -1.0072,-0.33648 -1.0072,-0.33737 -1.0071,-0.33809 -1.0065,-0.33866 -1.4118,-0.47651 -1.2155,-0.41153 -6.0815,-2.06381 -2.0295,-0.68712 -0.8126,-0.27412 -0.8127,-0.2738 -1.2192,-0.40954 -1.8464,-0.61804 -0.5782,-0.19259 -0.5789,-0.19253 -0.2903,-0.0961 -0.2903,-0.0957 -0.291,-0.0956 -0.2909,-0.0952 -0.2916,-0.0952 -0.2918,-0.0948 -0.2915,-0.0943 -0.2926,-0.0942 -0.2927,-0.0936 -0.2922,-0.093 -0.2931,-0.0928 -0.2937,-0.0923 -0.2933,-0.0914 -0.2943,-0.091 -0.2941,-0.0903 -0.2942,-0.0898 -0.295,-0.0892 -0.2947,-0.0883 -0.2952,-0.0872 -0.2956,-0.0868 -0.295,-0.0859 -0.2965,-0.085 -0.3141,-0.089 -0.5142,-0.13805 -0.5398,-0.1301 -0.5445,-0.11665 -0.5494,-0.10261 -0.5533,-0.0883 -0.5565,-0.0738 -0.5597,-0.0586 -0.562,-0.0433 -0.5634,-0.0276 -0.5644,-0.0116 -0.5647,0.005 -0.565,0.0223 -0.5546,0.0393 -20.5982,1.66522 c -4.7567,0.38461 -9.4974,1.43033 -12.9026,4.94798 l -1.1231,0.12607 c -1.801,0.20221 -3.5261,0.52286 -4.9636,1.63856 l -24.7068,2.97762 c -5.5662,0.67097 -11.6409,3.5122 -14.0865,8.83986 -0.9858,2.14738 -1.2686,4.72449 -1.0265,7.0612 0.4292,4.1351 2.6212,8.26227 6.8992,9.39226 1.7926,0.47402 4.888,-0.24284 7.3422,-0.88856 l -0.089,1.47852 c -0.045,0.75686 -0.7712,1.81238 -1.4593,2.13033 l -5.3252,2.46169 4.9918,3.08196 c 0.6449,0.39787 1.2392,1.53319 1.1936,2.28985 l -0.089,1.47955 -11.5966,4.14626 c -0.7019,0.25124 -1.4212,0.4387 -2.1196,0.70725 -3.666,1.41033 -6.9425,3.65731 -9.5229,6.62461 -4.5868,5.27497 -6.7997,12.84723 -4.5344,19.61867 1.463,4.37334 4.5646,7.71 8.6741,9.74496 2.9311,1.45161 6.2513,2.32511 9.5369,2.32305 l 1.4841,0.95945 c 2.2223,1.43655 5.1827,1.94158 7.791,1.6767 2.6123,-0.26489 4.8286,-1.49955 6.9953,-2.85957 3.2307,0.12607 8.1632,-3.10798 10.5314,-4.66873 1.7292,-1.13948 3.4198,-2.33639 5.1009,-3.54598 0.5147,-0.36968 1.033,-0.7525 1.5556,-1.13089 l -0.1774,2.95333 -4.0092,2.79527 -1.5448,1.07732 1.3319,2.21538 0.656,1.08641 c 1.1914,1.9726 3.1891,3.22296 5.4223,3.56027 1.5586,2.26884 3.8868,3.79395 6.5654,4.50473 3.6466,0.96777 5.9857,0.48542 8.6084,-1.46398 l 0.045,0.0503 21.4724,-18.98186 c 1.5277,0.75576 3.24,1.18543 4.9403,1.01988 l 1.6233,-0.15856 c 1.3745,0.5908 2.9061,0.72994 4.3803,0.49722 1.3071,1.1489 2.8702,2.01298 4.5371,2.50693 0.6186,0.1835 1.2568,0.31469 1.8989,0.38571 l 2.9144,0.85209 c 22.4059,6.55122 44.7111,13.43912 67.284,19.40647 5.953,1.5737 11.9265,3.07959 17.9514,4.35494 10.2802,2.17629 22.8056,2.73459 32.1018,-2.93006 3.2695,-1.99209 6.0322,-4.73174 7.7683,-8.1669 1.5575,-3.08119 2.1796,-6.54213 1.7087,-9.968 -0.3892,-2.82579 -1.7036,-5.09455 -3.052,-7.53868 l -4.7581,-8.62342 z m -51.3174,31.34823 c 5.9212,1.5653 11.8825,3.06798 17.8749,4.3368 9.8233,2.07925 22.0263,2.70696 30.9555,-2.73388 3.0174,-1.83872 5.5787,-4.36026 7.1814,-7.53195 1.4142,-2.79759 1.982,-5.93152 1.5539,-9.04258 -0.3604,-2.61903 -1.3747,-4.97938 -2.8701,-6.9916 l -5.5759,-10.10592 c 0.8135,-0.37608 1.8169,-0.83953 2.5383,-1.17364 l -0.2625,-0.16189 -4.0659,-6.87187 0.2678,-4.4482 c 1.2679,1.99119 5.6183,10.52252 9.7932,8.9601 0.8834,-0.23432 1.7192,-0.60515 2.4908,-1.09532 2.3048,-1.46411 3.8809,-3.87862 4.7982,-6.40933 1.0252,-2.83091 1.4431,-6.51745 0.435,-9.40848 -0.9355,-2.68151 -2.7034,-4.95958 -5.0067,-6.53763 l -9.6255,-8.95408 -0.021,-0.0189 c 0.179,-0.28579 0.3519,-0.57593 0.5172,-0.87043 1.8606,-3.31083 2.8126,-7.16675 2.3822,-10.96288 -1.2224,-10.77555 -10.1781,-13.18442 -18.3508,-16.69278 l -0.2894,-0.12133 -0.2925,-0.11684 -0.2952,-0.11228 -0.297,-0.10774 -0.2997,-0.103 -0.3019,-0.0981 -0.3039,-0.0933 -0.3058,-0.0879 -0.3078,-0.083 -0.309,-0.0774 -0.3105,-0.0723 -0.3117,-0.0666 -0.3132,-0.0612 -0.3139,-0.0558 -0.3151,-0.0496 -0.3155,-0.0441 -0.3165,-0.038 -0.3167,-0.0316 -0.3165,-0.0258 -0.317,-0.0194 -0.3172,-0.0129 -0.3169,-0.007 h -0.3166 l -0.316,0.007 -0.3157,0.0135 -0.3147,0.0203 -0.3139,0.0271 -0.3129,0.0344 -0.3117,0.0418 -0.3103,0.0489 -0.1868,0.0336 -0.1925,0.0381 -0.1979,0.0431 -0.202,0.0478 -0.2057,0.0528 -0.2085,0.0582 -0.2108,0.0628 -0.2119,0.0687 -0.2127,0.0736 -0.2118,0.0792 -0.2113,0.0847 -0.2096,0.0903 -0.2073,0.0959 -0.2037,0.10191 -0.1995,0.10774 -0.1954,0.11395 -0.1894,0.11934 -0.1831,0.12607 -0.1762,0.13228 -0.1681,0.13863 -0.1599,0.14517 -0.1504,0.15132 -0.1402,0.15805 -0.1296,0.16516 -0.1173,0.1717 -0.1054,0.17837 -0.092,0.18567 -0.078,0.19279 -0.063,0.19964 -0.048,0.20695 -0.032,0.21452 -0.015,0.22182 v 0.19188 l 0.016,0.18696 0.029,0.1824 0.042,0.17766 0.054,0.17299 0.066,0.16785 0.076,0.16279 0.087,0.15748 0.097,0.1526 0.1052,0.14754 0.1142,0.14209 c 4.5746,5.20755 3.3247,3.8822 4.5872,4.82383 1.1267,0.83992 2.371,1.30772 3.7828,1.30791 2.0655,3.9e-4 3.959,-0.9963 5.8825,-1.61927 1.4354,-0.46491 2.7187,-0.6577 4.0596,-0.46036 l 0.1315,0.19035 0.1573,0.25181 0.1445,0.25874 0.1317,0.2663 0.1177,0.2738 0.1036,0.28104 0.088,0.28873 0.073,0.29649 0.056,0.30392 0.039,0.31161 0.022,0.31917 0.01,0.21221 -0.01,0.21163 -0.011,0.21003 -0.019,0.20893 -0.026,0.20785 -0.034,0.20689 -0.04,0.20496 -0.047,0.20381 -0.054,0.20221 -0.06,0.20042 -0.066,0.19894 -0.072,0.19727 -0.078,0.19548 -0.083,0.19298 -0.089,0.1915 -0.093,0.18907 -0.098,0.18734 -0.1034,0.18477 -0.1075,0.1826 -0.112,0.18003 -0.1155,0.17786 -0.1196,0.17497 -0.1235,0.1724 -0.1268,0.16946 -0.1296,0.16734 -0.133,0.16388 -0.1362,0.16094 -0.1386,0.15824 -0.1408,0.15484 -0.143,0.15183 -0.1451,0.14844 -0.1469,0.14478 -0.2007,0.19061 -0.2051,0.18638 -0.2093,0.18189 -0.2131,0.17747 -0.2166,0.17317 -0.2205,0.16876 -0.224,0.16426 -0.2277,0.16023 -0.2307,0.15549 -0.234,0.15151 -0.2367,0.14664 -0.2398,0.1426 -0.2424,0.13793 -0.2456,0.13388 -0.2473,0.12895 -0.2499,0.12485 -0.2528,0.12043 -0.2541,0.11607 -0.2564,0.11178 -0.2584,0.10696 -0.2597,0.10249 -0.2616,0.0986 -0.2629,0.094 -0.2644,0.0893 -0.2654,0.0847 -0.2665,0.0807 -0.2673,0.0761 -0.2683,0.0714 -0.2691,0.067 -0.2694,0.0627 -0.2694,0.0581 -0.2703,0.0536 -0.3178,0.0586 -0.3189,0.0553 -0.32,0.0522 -0.3214,0.0488 -0.3222,0.0461 -0.3233,0.0427 -0.324,0.0398 -0.3252,0.0367 -0.3259,0.0342 -0.3263,0.031 -0.3274,0.0287 -0.3271,0.0258 -0.3282,0.0235 -0.3281,0.0208 -0.3284,0.0184 -0.3292,0.016 -0.3291,0.0138 -0.3289,0.0112 -0.3291,0.009 -0.3292,0.007 -0.3284,0.005 -0.3289,0.003 -0.3283,10e-4 -0.3279,-10e-4 -0.3276,-0.003 -0.3272,-0.004 -0.3261,-0.006 -0.3255,-0.007 -0.3249,-0.009 -0.3239,-0.0103 -0.3234,-0.0118 -0.3221,-0.0131 -0.4035,-0.0183 -0.4035,-0.02 -0.4035,-0.0225 -0.4038,-0.0242 -0.4041,-0.0263 -0.4037,-0.0283 -0.4037,-0.03 -0.4038,-0.0322 -0.4037,-0.0338 -0.4034,-0.0354 -0.404,-0.0374 -0.4035,-0.039 -0.4035,-0.0407 -0.4035,-0.0424 -0.4031,-0.0438 -0.4034,-0.0454 -0.4026,-0.0469 -0.4027,-0.0485 -0.4025,-0.0499 -0.4026,-0.0513 -0.4018,-0.0527 -0.4023,-0.0539 -0.4014,-0.0554 -0.4012,-0.0563 -0.4009,-0.0577 -0.4008,-0.059 -0.4004,-0.06 -0.3999,-0.0612 -0.4001,-0.0622 -0.3991,-0.063 -0.3988,-0.0645 -0.3982,-0.065 -0.9322,-0.15606 -0.9318,-0.1617 -0.9313,-0.16645 -0.932,-0.1715 -0.9307,-0.17619 -0.9311,-0.18093 -0.9309,-0.18555 -0.9304,-0.19022 -0.93,-0.194 -0.9295,-0.19875 -0.929,-0.2024 -0.9288,-0.20657 -0.9274,-0.21022 -0.9271,-0.214 -0.9269,-0.21765 -0.9261,-0.22105 -0.9249,-0.22439 -0.9242,-0.22765 -0.9238,-0.23054 -0.9225,-0.23367 -0.9218,-0.2365 -0.9204,-0.23912 -0.9196,-0.24163 -0.9188,-0.24412 -0.9174,-0.24618 -0.9162,-0.24893 -0.9148,-0.25072 -0.9138,-0.25291 -0.9122,-0.25412 -0.9113,-0.25675 -0.9098,-0.25758 -0.9084,-0.25925 -1.0216,-0.2938 -1.0212,-0.29648 -1.0206,-0.29828 -1.0198,-0.30091 -1.0194,-0.30284 -1.0184,-0.3052 -1.0182,-0.30706 -1.017,-0.30866 -1.0167,-0.31136 -1.0163,-0.3127 -1.0157,-0.31482 -1.0154,-0.31629 -1.0143,-0.31815 -1.0139,-0.31975 -1.0137,-0.32103 -1.0129,-0.32334 -1.0127,-0.32431 -1.0122,-0.32558 -1.0119,-0.32719 -1.0115,-0.32866 -1.0107,-0.32955 -1.0104,-0.33104 -1.0102,-0.33205 -1.0097,-0.33302 -1.0094,-0.33411 -1.0093,-0.33539 -1.0088,-0.33609 -1.0085,-0.33668 -1.0083,-0.33789 -1.0077,-0.33846 -1.0081,-0.33898 -1.0069,-0.33994 -0.4058,-0.13735 -0.4055,-0.13677 -0.4056,-0.13722 -0.4057,-0.13715 -0.4053,-0.13754 -0.4053,-0.13748 -0.4059,-0.13754 -0.4055,-0.13773 -0.4053,-0.13773 -0.4055,-0.13735 -0.4055,-0.13786 -0.4053,-0.13754 -0.4055,-0.13786 -0.4053,-0.13774 -0.4053,-0.13754 -0.4059,-0.13786 -0.4054,-0.13734 -0.4054,-0.13774 -0.4054,-0.13734 -0.4053,-0.13754 -0.4056,-0.13774 -0.4057,-0.13696 -0.4057,-0.13754 -0.4055,-0.13677 -0.4058,-0.13735 -0.4056,-0.13683 -0.4055,-0.13658 -0.406,-0.13684 -0.4059,-0.13625 -0.4059,-0.13646 -0.4058,-0.13606 -0.4065,-0.13607 -0.2866,-0.0963 -0.2878,-0.0961 -0.2876,-0.0963 -0.2879,-0.0963 -0.2878,-0.0961 -0.2884,-0.0963 -0.2882,-0.0961 -0.2887,-0.0959 -0.2887,-0.0957 -0.2891,-0.0956 -0.289,-0.0954 -0.2892,-0.0954 -0.2891,-0.0947 -0.2897,-0.0943 -0.2897,-0.0941 -0.2901,-0.094 -0.2896,-0.093 -0.2903,-0.093 -0.2901,-0.0922 -0.2902,-0.0919 -0.2903,-0.0912 -0.2905,-0.0906 -0.2908,-0.0901 -0.2906,-0.0894 -0.2908,-0.0885 -0.291,-0.0877 -0.2911,-0.087 -0.2907,-0.0865 -0.2912,-0.0854 -0.2914,-0.0847 -0.2911,-0.0836 -0.2914,-0.0832 -0.4949,-0.13248 -0.4999,-0.12081 -0.5046,-0.10787 -0.5088,-0.0948 -0.5122,-0.082 -0.5147,-0.0682 -0.5169,-0.0542 -0.5179,-0.0398 -0.5187,-0.0254 -0.5185,-0.0103 -0.5176,0.004 -0.5169,0.0206 -0.5144,0.0361 -20.5978,1.66503 c -4.6133,-0.0447 -9.1641,1.35624 -12.2715,4.87806 l -1.7054,0.19125 c -1.634,-0.0777 -3.2565,0.44331 -4.4834,1.58081 l -25.1746,3.03434 c -5.2496,0.0422 -10.6877,3.23725 -12.8426,7.93213 -0.8662,1.88692 -1.1035,4.19055 -0.8907,6.24134 0.3622,3.49362 2.1397,7.08101 5.7338,8.03116 1.8929,0.49979 6.6301,-0.934 8.6438,-1.44866 l -0.2198,3.65674 c -0.08,1.33515 -1.152,2.90269 -2.3716,3.46638 l -2.6626,1.23087 2.496,1.54082 c 1.1435,0.70616 2.0192,2.39086 1.939,3.72582 l -0.1515,2.51873 -12.5767,4.49684 c -0.7024,0.19893 -1.3976,0.42954 -2.0846,0.69404 -3.4266,1.31804 -6.4874,3.41402 -8.8992,6.18751 -4.2217,4.85588 -6.3189,11.83747 -4.2289,18.08458 1.3294,3.97366 4.1442,6.98346 7.8786,8.83256 2.8334,1.40289 6.0923,2.2421 9.2926,2.15321 l 1.8845,1.21799 c 1.9187,1.2401 4.5308,1.66035 6.7762,1.43231 2.8292,-0.287 5.5057,-2.10963 6.7834,-2.92115 3.9315,0.92182 15.451,-8.31348 18.5482,-10.31665 0.4126,0.72032 0.6532,1.55171 0.6094,2.27896 l -0.2215,3.68384 c -0.01,0.15458 -0.022,0.30667 -0.04,0.45652 l -4.9333,3.43914 -0.037,0.005 0.01,0.0142 -0.1181,0.0827 0.155,-0.0214 1.1923,1.97459 c 1.0797,1.78789 2.9739,2.79003 4.9941,2.88341 1.3142,2.26697 3.4735,3.78959 6.0485,4.47325 3.8968,1.03335 5.8253,0.1344 8.4563,-2.17833 l -0.073,0.0652 21.1297,-18.67903 c 1.473,0.92093 3.258,1.53986 4.9957,1.37053 l 2.0535,-0.20003 c 1.3714,0.70692 3.0255,0.80902 4.5879,0.39679 1.2355,1.26356 2.8098,2.20628 4.4997,2.70644 0.5516,0.16331 1.1482,0.28617 1.7557,0.34392 l 3.0522,0.89241 c 23.0258,6.73215 44.4769,13.37663 67.2445,19.39538"
           style="fill:#ffffff;fill-opacity:1;fill-rule:evenodd;stroke:none;stroke-width:0.640913"
           id="path48" />
        <path
           d="m -1331.4303,662.49414 c -0.3971,-0.19657 -0.7921,-0.37519 -1.1856,-0.53958 l -0.1781,2.96115 c 0.3632,0.0981 0.7359,0.22323 1.119,0.38204 8.735,3.61283 9.808,15.66482 -0.5884,20.43475 -0.2113,0.10576 -0.4288,0.20074 -0.6508,0.28431 -5.0443,2.07259 -12.5767,2.50694 -22.9795,-0.26995 -3.0478,-0.81357 -6.3814,-1.73085 -9.9446,-2.72971 -2.3101,1.67054 -5.3288,2.38727 -8.5239,1.77225 -3.7154,-0.71507 -6.9464,-3.08574 -8.9373,-6.26672 -1.6199,-0.0509 -3.1783,-0.69238 -4.3732,-1.76809 -1.4552,-0.42345 -2.9286,-0.85203 -4.4186,-1.28663 -1.4152,3.24968 -4.408,5.17614 -7.9238,5.32823 15.1023,4.34129 28.6981,8.03519 39.1127,10.23981 38.9609,8.24701 46.2079,-20.25511 29.4721,-28.54186 z M -1453.282,631.0469 c 0.4271,-0.60047 0.8118,-1.23088 1.1488,-1.88384 0.2555,0.68841 0.5621,1.36079 0.914,2.00773 -0.4271,0.60008 -0.8116,1.23087 -1.1482,1.88345 -0.2562,-0.68821 -0.5625,-1.3606 -0.9146,-2.00734 z m -68.5222,-3.21553 c -0.4271,0.5999 -0.8118,1.23088 -1.1482,1.88326 -0.256,-0.68815 -0.5627,-1.3604 -0.9144,-2.00715 0.4268,-0.60028 0.8115,-1.23068 1.1482,-1.88364 0.256,0.6884 0.5621,1.36059 0.9144,2.00753 z m 25.1129,-3.83881 c -0.2556,-0.68873 -0.5621,-1.36149 -0.9146,-2.00824 0.4277,-0.60047 0.8121,-1.23139 1.1486,-1.88454 0.2559,0.68892 0.5624,1.3613 0.9145,2.00824 -0.4269,0.60028 -0.8119,1.23145 -1.1485,1.88454 z m 67.502,-13.05964 c 6.1333,1.94364 12.288,3.81908 18.4735,5.59056 12.3012,3.52362 24.9177,6.75055 37.5488,8.83275 2.363,0.38948 4.8508,0.7616 7.4032,1.07481 -15.7684,-1.28119 -33.1467,-6.05945 -43.3712,-9.08398 -6.7301,-1.9903 -13.4103,-4.14825 -20.0543,-6.41414 z m -69.6965,49.54895 c 0.2558,0.68872 0.5623,1.3613 0.9142,2.00862 -0.4269,0.60028 -0.8115,1.23119 -1.1485,1.88416 -0.2558,-0.68873 -0.5616,-1.36111 -0.9142,-2.00824 0.4275,-0.60047 0.8119,-1.23139 1.1485,-1.88454 z m -25.633,-4.6929 c 0.2558,0.68841 0.5622,1.3606 0.9142,2.00753 -0.4272,0.60009 -0.8118,1.23088 -1.1482,1.88365 -0.256,-0.68821 -0.5627,-1.3606 -0.9144,-2.00753 0.4267,-0.60028 0.8117,-1.23107 1.1484,-1.88365 z m 42.9651,-34.79896 c 0.2558,0.68821 0.5621,1.3604 0.9142,2.00734 -0.4273,0.60028 -0.8117,1.23087 -1.1482,1.88364 -0.2561,-0.6884 -0.5625,-1.36059 -0.9145,-2.00772 0.4271,-0.5999 0.8119,-1.23049 1.1485,-1.88326 z m 14.7908,2.74586 c 0.2558,0.68854 0.5621,1.3604 0.914,2.00753 -0.4269,0.5999 -0.8117,1.23069 -1.148,1.88307 -0.2558,-0.68783 -0.5623,-1.3604 -0.9149,-2.00734 0.4275,-0.59989 0.8125,-1.23049 1.1489,-1.88326 z m 114.9469,32.81874 c 0.256,0.68815 0.5621,1.36034 0.9146,2.00747 -0.4275,0.59989 -0.8119,1.23048 -1.1486,1.88345 -0.2558,-0.68854 -0.5623,-1.36092 -0.9145,-2.00754 0.4271,-0.60021 0.8121,-1.23081 1.1485,-1.88338 z m 15.1992,-4.06102 c 0.2558,0.68872 0.5621,1.36149 0.9142,2.00843 -0.4271,0.60021 -0.8116,1.23119 -1.1484,1.88435 -0.2559,-0.68892 -0.5621,-1.3615 -0.9143,-2.00843 0.4273,-0.60028 0.8117,-1.23126 1.1485,-1.88435 z m -27.9485,-2.81419 c 0.2556,0.68783 0.5615,1.35893 0.9133,2.00516 -0.3806,0.53613 -0.7262,1.09571 -1.0338,1.67144 l -0.1164,0.21746 c -0.2551,-0.68911 -0.5609,-1.36207 -0.9127,-2.01029 0.4276,-0.6004 0.8126,-1.23061 1.1496,-1.88377 z m -29.9639,0.80922 c -0.2547,-0.6886 -0.5601,-1.36258 -0.9123,-2.01298 0.4273,-0.60009 0.8122,-1.23088 1.1489,-1.88403 0.2558,0.68821 0.5621,1.36008 0.9138,2.00663 -0.3849,0.54286 -0.7345,1.1093 -1.0453,1.69266 z m -28.3662,-8.4821 c -0.4273,0.60021 -0.8123,1.23061 -1.1485,1.88358 -0.2563,-0.68835 -0.5623,-1.36073 -0.9144,-2.00754 0.4269,-0.6004 0.8116,-1.23081 1.1482,-1.88338 0.256,0.68814 0.5626,1.36033 0.9147,2.00734 z m -97.2578,-9.08566 c 0.1138,-1.82224 1.4589,-3.94962 3.2831,-4.79262 -1.7098,-1.0559 -2.7903,-3.32922 -2.685,-5.15198 l 0.7763,-12.90575 c 0.1706,-2.83957 1.9981,-5.54275 3.9949,-5.04149 -0.7525,-1.24651 -2.0386,-1.96517 -3.4422,-2.10488 -1.5719,-0.14229 -2.7305,0.57316 -3.7364,1.60401 0.4535,-0.64752 1.0234,-1.28407 1.6275,-1.78988 -4.9153,-5.80456 -15.5204,-2.73112 -18.5884,3.95219 -1.7926,3.90547 -0.7412,11.13709 4.0784,12.15396 2.9466,0.6222 4.7007,-2.76695 0.2909,-3.67153 -5.3008,-1.08693 -4.2576,-7.12094 -2.5091,-9.73221 2.3398,-3.49432 12.4635,-3.67365 12.3699,3.49657 l -0.046,0.77467 -0.7758,12.89646 c -0.1097,1.82436 -1.4565,3.95783 -3.2836,4.80242 1.7132,1.05738 2.7943,3.33686 2.6844,5.16122 l -0.4861,8.08371 c -1.1817,-0.15754 -2.3175,-0.29361 -3.405,-0.4075 -23.7219,-2.48386 -32.7099,23.87428 -17.0451,31.63093 9.6612,4.78352 18.5348,-0.14042 14.4906,-3.34377 -4.2656,-3.37755 -7.7251,3.23745 -14.2462,0.5401 -11.1635,-4.61797 -9.8147,-23.02071 12.0006,-22.38723 2.3269,0.0672 4.9405,0.28815 7.8037,0.64316 l -0.3161,5.25138 c -0.1137,1.82218 -1.4592,3.94995 -3.283,4.79275 1.7099,1.05571 2.7903,3.32903 2.6849,5.15198 l -0.3188,5.30081 v 0 c -0.085,1.40071 -0.6228,3.48836 -2.0562,5.08673 -1.4714,1.64125 -3.8884,2.37503 -5.4269,2.42413 2.7261,1.76206 8.3611,2.00747 11.4152,-1.67657 -0.5249,-0.46472 -1.0162,-1.01879 -1.4188,-1.58216 0.619,0.62259 1.2936,1.12724 2.0815,1.39104 1.7891,0.44916 3.6889,-0.0586 4.8311,-1.52024 -2.4446,-0.64169 -3.5326,-2.64448 -3.3621,-5.48372 h -10e-5 l 0.2147,-3.57194 c 0.1099,-1.82436 1.4565,-3.95796 3.2838,-4.80223 -1.7129,-1.05751 -2.7942,-3.33705 -2.6843,-5.1616 l 0.2847,-4.73616 c 5.8667,0.96676 12.5064,2.35254 19.691,4.04199 l -0.3025,5.0295 c -0.1097,1.82442 -1.4567,3.95783 -3.2838,4.80262 1.7127,1.05751 2.7943,3.33666 2.6844,5.16121 l -0.2214,3.68403 c -0.1706,2.83944 -1.4912,4.69726 -3.9953,5.04136 0.8631,1.42905 2.4277,2.1643 4.0659,2.12854 1.0472,-0.0571 1.954,-0.53779 2.7991,-1.20472 -0.5817,0.63585 -1.2986,1.24157 -2.0251,1.67579 2.3908,4.594 8.429,5.14199 11.4894,3.6493 -1.5979,0.15773 -3.8329,-1.25081 -5.0971,-3.05684 -1.2316,-1.75898 -1.5156,-3.89553 -1.4315,-5.29644 l 0.1548,-2.57288 4e-4,-0.006 v 0 l 0.2214,-3.68365 c 0.11,-1.82442 1.4571,-3.95802 3.2836,-4.80281 -1.7122,-1.05732 -2.794,-3.33666 -2.6842,-5.16121 l 0.2384,-3.96437 c 7.8602,1.94337 16.2582,4.19035 24.9263,6.60628 -0.385,-0.52773 -0.7285,-1.08571 -1.027,-1.66632 -2.189,-0.56541 -4.0748,-2.17647 -5.0762,-4.1942 l -0.5778,-1.16415 c -1.6928,-0.72199 -3.2474,-1.77642 -4.5987,-3.05126 -4.5935,-1.17415 -10.9684,-3.18355 -15.5637,-3.62424 0.8434,-0.53087 1.5826,-0.77358 2.396,-0.86715 l 1.1122,-18.49304 c 0.1097,-1.82398 1.4567,-3.95777 3.2838,-4.80243 -1.7125,-1.05712 -2.7944,-3.33685 -2.6847,-5.16121 l 0.3892,-6.47021 c 0.071,-0.984 0.1239,-1.93466 0.1713,-2.84835 l 0.2571,-4.27573 c 0.5737,-6.66408 2.385,-9.89557 13.8112,-6.46784 21.2263,6.36844 110.5062,46.29926 141.1928,29.11067 11.9161,-6.67441 15.1005,-23.29284 0.5944,-30.08376 -10.3016,-4.82224 -19.7266,0.0687 -15.4096,3.28852 4.5532,3.39498 8.2094,-3.20841 15.1604,-0.48485 15.8093,6.19366 8.2933,20.99632 -5.7494,23.66854 -32.9658,6.27314 -113.361,-25.67806 -135.1373,-31.82781 -6.0213,-1.70054 -13.6687,-1.23742 -17.7227,4.45248 0.4734,0.53741 0.9015,1.16531 1.2354,1.79046 -0.8593,-1.12384 -1.9016,-1.96248 -3.4328,-2.03695 l -0.038,-0.002 -0.041,-0.001 c -1.4287,-0.0445 -2.814,0.51453 -3.7219,1.67599 1.9727,0.26925 3.5331,2.64396 3.3621,5.48372 l -0.051,0.83825 -0.8317,13.83136 c -0.1097,1.82462 -1.4569,3.95802 -3.2838,4.80262 1.7129,1.05738 2.7942,3.33723 2.6845,5.1614 l -1.1242,18.69108 c -5.7001,-1.29829 -11.0409,-2.41925 -15.9076,-3.31595 l -4e-4,-1.9e-4 c -1.2966,-0.23894 -2.5594,-0.46204 -3.7863,-0.66803 v -0.002 c -1.1004,-0.15081 -2.1054,-0.25111 -2.7926,-0.27309 0.9851,-0.71706 1.8373,-0.97887 2.8741,-1.08347 l 0.4377,-7.27616 z m 41.1622,-4.82402 c 0.1097,-1.82462 1.4569,-3.95803 3.2838,-4.80262 -1.7128,-1.05757 -2.794,-3.33704 -2.6845,-5.16147 l 0.332,-5.52108 c 0.1486,-2.46899 2.2353,-3.76524 4.6607,-2.8952 2.4258,0.86985 4.2721,3.577 4.1235,6.0458 l -0.2867,4.76737 c -0.1139,1.82218 -1.4593,3.94963 -3.2831,4.79301 1.7096,1.05552 2.7903,3.32883 2.6851,5.15159 l -0.7656,12.72784 c -0.1486,2.46937 -2.2354,3.76562 -4.6613,2.89539 -2.4252,-0.87004 -4.2714,-3.57669 -4.1228,-6.046 l 0.2095,-3.48381 z m -5.3622,-10.31307 c -0.1139,1.82238 -1.4588,3.94982 -3.2829,4.79282 1.71,1.05571 2.7903,3.32941 2.6847,5.15198 l -0.6146,10.22257 c -0.1708,2.83937 -0.2645,5.85942 -2.2359,5.8425 0.6693,0.72141 1.4027,1.14672 2.1489,1.3006 0.5252,0.0796 1.0096,0.0591 1.4613,-0.0396 0.1029,-0.0265 0.2054,-0.0579 0.3069,-0.0945 l 0.01,0.0122 c 0.7614,-0.23419 1.431,-0.69109 2.0547,-1.25952 -0.5058,0.63912 -1.1344,1.2592 -1.7883,1.73482 1.7409,2.98275 4.4905,5.47154 7.6663,6.61064 1.2947,0.46434 2.5476,0.66347 3.7151,0.62675 -0.6744,0.89753 -1.6987,1.28759 -3.0192,1.02123 0.6954,1.40142 1.857,2.46425 3.142,3.04286 l -0.01,-0.012 c 1.4236,0.69219 2.7622,0.43133 4.0696,-0.17965 -0.6763,0.46197 -1.4651,0.86934 -2.2343,1.12891 1.8055,3.68826 5.3131,5.6965 7.8302,5.45103 -2.1312,-0.97778 -3.3008,-6.50527 -3.1301,-9.3449 v 0 l 0.1154,-1.91922 v -0.0331 0 l 0.3933,-6.53757 0.8698,-14.46035 c 0.1096,-1.82443 1.4565,-3.95764 3.2834,-4.80262 -1.7124,-1.057 -2.794,-3.33666 -2.6844,-5.16108 l 0.1817,-3.01601 0.082,-1.36547 c 0.084,-1.40072 0.6151,-3.36787 2.0247,-4.57695 1.448,-1.24158 5.8784,-2.07458 7.4184,-1.26395 -2.3758,-3.41607 -8.4499,-4.66578 -12.2021,-2.08726 0.089,0.77409 0.065,1.616 -0.047,2.3883 -0.016,-0.95163 -0.1755,-1.84872 -0.6399,-2.62903 -1.667,-2.05496 -3.8379,-3.70512 -6.2563,-4.57279 -5.0728,-1.81929 -9.5095,0.42224 -10.6252,5.05425 l -0.2504,1.70156 -0.4375,7.2725 z m 150.2999,41.81735 c 0.1097,-1.82442 1.4569,-3.95802 3.2838,-4.80242 -1.7127,-1.05738 -2.794,-3.33724 -2.6843,-5.16128 l 0.5348,-8.89594 0.049,-0.8246 2e-4,-10e-4 v -0.002 l 2e-4,-10e-4 2e-4,-10e-4 v -10e-4 l 10e-5,-10e-4 2e-4,-0.001 v -10e-4 -10e-4 l 0.01,-0.095 c 0.6057,-5.62017 6.0046,-7.78537 10.3069,-7.48247 8.5593,0.60188 7.8673,12.36321 0.618,14.245 -5.4172,1.40655 -3.8023,5.3424 -0.1797,4.38096 5.9252,-1.57113 8.2269,-10.31864 6.6396,-14.8704 -2.7119,-7.77806 -13.0662,-10.99083 -19.7271,-3.72397 0.051,0.11498 0.099,0.23272 0.1484,0.36936 0.2887,0.79589 0.4615,1.71842 0.51,2.57923 -0.2386,-1.07315 -0.6492,-2.03625 -1.4569,-2.74676 -1.7599,-1.35188 -4.1326,-1.99209 -6.7943,-1.62728 -5.5844,0.76595 -10.4134,5.67772 -11.1146,11.15349 l -0.026,0.004 -0.044,0.72199 -0.6336,10.53616 c -0.1142,1.82199 -1.4592,3.94963 -3.283,4.79294 1.7097,1.0554 2.7902,3.32904 2.685,5.15167 l -0.4744,7.88707 -0.01,0.10338 v -3.8e-4 c -0.2876,5.70592 4.1387,9.67535 9.9339,8.88107 1.4027,-0.19259 2.758,-0.64655 4.0117,-1.30554 -0.7481,1.78571 -1.9719,3.14336 -3.2988,2.66755 0.7538,1.06917 2.0338,1.52646 3.4338,1.40187 1.57,-0.17882 2.56,-1.1141 3.3365,-2.32819 -0.341,0.79172 -0.8203,1.5987 -1.3647,2.24711 l -0.061,0.0716 c 2.0926,2.54801 5.9381,2.51603 7.9039,0.56977 -2.2855,-0.23932 -3.4653,-3.77068 -3.2946,-6.61051 -4e-4,0 0.4736,-7.87785 0.5169,-8.59253 l 0.522,-8.68412 z m -5.3615,-10.32229 c -0.1097,1.82436 -1.4561,3.95777 -3.2834,4.80243 1.7125,1.05712 2.7938,3.33685 2.6841,5.1614 l -0.5936,9.86975 c -0.1484,2.46899 -2.2944,4.74827 -4.7928,5.0909 -2.4984,0.3425 -4.4038,-1.38123 -4.2554,-3.85022 l 0.4026,-6.69204 c 0.1098,-1.82442 1.4567,-3.95802 3.2838,-4.80242 -1.7124,-1.05738 -2.7942,-3.33705 -2.6846,-5.16147 l 0.7045,-11.71231 c 0.1485,-2.46912 2.2946,-4.74846 4.793,-5.0909 2.4986,-0.34263 4.4035,1.3811 4.255,3.85022 z m -21.9217,5.28914 c 0.5864,-1.09718 1.5139,-2.07637 2.6161,-2.58564 -1.7125,-1.05751 -2.794,-3.33723 -2.6845,-5.1614 v 0 0 l 0.1041,-1.72758 0.012,-0.20638 v -1.9e-4 c 0.2316,-5.68702 -4.0846,-11.12984 -9.7318,-12.21703 -5.6472,-1.08673 -10.5118,2.58872 -10.9616,8.23375 v -5.1e-4 l -0.013,0.20638 -0.3212,5.34149 -0.159,2.64775 c -0.1709,2.83924 -1.648,5.1814 -3.9664,4.56022 1.5617,2.83399 5.4424,3.64404 7.8565,1.4543 0.5366,-0.53516 0.9127,-1.21158 1.2068,-1.96062 -0.103,0.47889 -0.249,0.97124 -0.4305,1.44321 1.5044,0.45402 3.0561,0.11991 4.0848,-1.08097 -2.1253,-0.15913 -2.8451,-3.07106 -2.6792,-5.90358 l 0.3224,-5.36361 c 0.1487,-2.46899 2.2548,-4.08825 4.7042,-3.61699 2.4495,0.47145 4.3152,2.85527 4.1666,5.32458 l -0.1521,2.52603 c -0.1179,1.82039 -1.4614,3.942 -3.2823,4.78371 1.0624,0.65566 1.8816,1.78155 2.3247,2.9773 v 0 c 0.1406,0.30181 0.2288,0.52049 0.3218,0.83171 0.2425,0.81159 0.3626,1.74246 0.3618,2.60455 -0.1062,-0.65386 -0.2774,-1.27157 -0.5644,-1.82462 -8.5123,1.19838 -19.1303,1.88275 -25.0951,5.00573 0.01,0.55125 -0.042,1.11275 -0.1292,1.64093 0,-0.80557 -0.1005,-1.57389 -0.4048,-2.26954 -2.0745,-3.39947 -5.9462,-4.64649 -7.8001,-2.70824 1.9614,0.17714 3.4728,3.64173 3.302,6.4813 l -0.3443,5.72393 c -0.1484,2.46899 -2.2377,3.80754 -4.6663,2.98947 -2.4289,-0.81774 -4.2776,-3.48201 -4.1293,-5.95139 l 0.7061,-11.73518 c 8.2071,-0.0165 18.3157,1.16037 20.4426,-4.95247 -1.1475,0.81261 -2.7958,1.22485 -4.7441,1.41251 0.5861,-1.10096 1.5155,-2.08361 2.6212,-2.59467 -1.7124,-1.05719 -2.794,-3.33705 -2.6843,-5.16141 l 0.1668,-2.77297 0.012,-0.20638 v -6.4e-4 c 0.2322,-5.70188 -4.0446,-11.79389 -9.6441,-13.67946 -5.5995,-1.88563 -10.4248,1.14128 -10.8739,6.77087 v -10e-4 l -0.013,0.20619 -0.3833,6.37304 v 0 0.0222 l -0.1513,2.52238 v 0 c -0.1708,2.83957 -1.7714,4.50209 -3.9354,4.04429 0.9875,3.353 5.7612,4.66796 8.2709,1.97901 l 0.01,0.003 c 0.4377,-0.49947 0.7594,-1.10097 1.0178,-1.75848 -0.1414,0.65675 -0.3634,1.33881 -0.6477,1.95902 1.7163,0.86331 3.5149,0.82953 4.6093,-0.3154 -2.3811,-0.42056 -3.469,-3.63026 -3.3029,-6.46604 l 0.3841,-6.38792 c 0.1486,-2.4688 2.2379,-3.80735 4.6667,-2.98967 2.4287,0.81793 4.2772,3.4826 4.1287,5.95152 l -0.2647,4.39859 c -0.1136,1.82224 -1.459,3.94982 -3.2826,4.79281 0.7054,0.43563 1.3036,1.0784 1.7561,1.81167 v 0 c 0.1907,0.27252 0.3159,0.47236 0.4621,0.76288 0.3808,0.75647 0.6615,1.65196 0.8115,2.50059 -0.2229,-0.63572 -0.505,-1.22267 -0.8938,-1.72265 -9.9329,-0.39262 -21.3498,-1.38533 -19.5465,9.96511 -0.4384,-3.2375 1.0869,-4.87805 3.6757,-5.69445 v -1.9e-4 c 0.3114,-0.11754 0.5363,-0.18913 0.854,-0.25906 0.8268,-0.18169 1.7641,-0.23201 2.6232,-0.16734 -0.7808,0.0681 -1.5182,0.23073 -2.171,0.57516 l -0.5321,8.84114 c -0.1705,2.83957 -1.8516,4.93574 -3.9349,4.0441 0.8284,1.64651 2.3151,2.80105 3.8862,3.2318 v 5.8e-4 c 0.1221,0.0334 0.2451,0.0627 0.3677,0.0869 1.3619,0.25976 2.5222,-0.21785 3.6045,-0.98182 -0.5229,0.51414 -1.1426,1.00072 -1.7774,1.37752 1.7498,2.80053 4.4198,5.09506 7.4863,6.12757 5.633,1.89724 10.4829,-1.17799 10.881,-6.87341 v 3.9e-4 l 0.01,-0.103 c 0.5392,-7.00633 4.125,-9.74803 8.8689,-10.86027 v -3.2e-4 c 0.3052,-0.13318 0.5261,-0.21637 0.8399,-0.302 0.8166,-0.22342 1.7499,-0.32174 2.6117,-0.30046 -1.0278,0.14279 -1.9715,0.4462 -2.7245,1.10948 l -0.5015,8.33495 c -0.1705,2.83963 -1.8722,5.27754 -3.966,4.5601 1.0176,1.84692 3.0204,2.83412 4.9598,2.69261 0.8628,-0.10614 1.6475,-0.4971 2.3952,-1.02463 -0.5424,0.53337 -1.1894,1.037 -1.8486,1.41943 1.7247,2.96749 4.6719,5.24805 8.1136,5.91044 5.6817,1.09352 10.5704,-2.63358 10.9692,-8.33636 v 3.2e-4 l 0.01,-0.10338 0.2576,-4.2797 0.2089,-3.47292 c 0.1708,-2.83963 1.3882,-5.41616 3.966,-4.56029 -1.776,-3.22309 -6.5512,-3.82843 -8.7571,-0.37987 0.4826,0.35642 0.9423,0.77141 1.34,1.20088 -0.4825,-0.3757 -0.9839,-0.69129 -1.5195,-0.90292 v 3.3e-4 c -1.6818,-0.54228 -3.4166,-0.23618 -4.4855,1.01123 2.0268,0.006 3.504,3.12573 3.3333,5.96549 l -0.2577,4.27976 c -0.1482,2.4688 -2.2546,4.08807 -4.7043,3.61661 -2.4493,-0.47139 -4.3148,-2.8552 -4.1662,-5.32419 l 0.068,-1.13455 0.6451,-10.72651 c 8.5073,-0.29252 17.8322,0.58861 20.6042,-7.64225 v 0 c -1.0708,0.89478 -2.7315,1.571 -4.7818,2.11475 z m -59.9083,-7.47164 c 0.1139,-1.82218 1.459,-3.95021 3.2831,-4.79314 -1.7098,-1.05539 -2.7904,-3.3289 -2.6852,-5.15178 l 0.4918,-8.17056 c 0.1706,-2.83957 2.07,-6.74331 3.9952,-5.04149 -1.1589,-1.91851 -3.581,-2.58634 -5.749,-1.81699 0.1508,0.64188 0.2338,1.32605 0.248,1.97286 -0.243,-1.30573 -0.7428,-2.46066 -1.9063,-3.22405 -4.1562,-2.61121 -10.9421,-0.95291 -12.9655,3.45497 -1.3504,2.94167 -0.5583,8.38924 3.0721,9.15558 2.2198,0.4687 3.5409,-2.08438 0.2193,-2.76606 -3.993,-0.81844 -3.2071,-5.3638 -1.8901,-7.33083 0.541,-0.80825 1.313,-1.40578 2.2048,-1.71373 v 0 h 2e-4 c 1.9034,-0.65732 4.3515,0.008 6.2605,2.76714 0.4589,0.76031 0.7184,1.60324 0.6533,2.46444 l -0.1032,1.71951 -0.4908,8.16145 c -0.1099,1.82404 -1.4569,3.95764 -3.284,4.80223 1.7128,1.05738 2.7942,3.33705 2.6845,5.16128 l -0.392,6.51725 -0.1035,1.71938 c -0.1706,2.83982 -2.0702,6.74331 -3.9952,5.04117 1.5657,2.59269 5.4388,2.90263 7.8733,0.46524 0.4898,-0.60329 0.7919,-1.33605 0.9997,-2.13302 -0.068,0.73653 -0.2303,1.51518 -0.4753,2.21756 1.8441,0.53644 3.8401,0.0461 5.024,-1.46795 -2.1147,1.45884 -3.5331,-2.64435 -3.362,-5.48411 z m -28.3257,-10.82624 c 0.1095,-1.82462 1.4565,-3.95822 3.2834,-4.80262 -1.7124,-1.05738 -2.794,-3.33686 -2.6845,-5.16128 l 0.4636,-7.70269 c 0.175,-2.83835 2.0718,-6.72946 3.9943,-5.02989 -1.5161,-2.5102 -5.1952,-2.88064 -7.6375,-0.68872 0.5319,0.5501 1.0181,1.21485 1.3949,1.87961 -0.8335,-1.03444 -1.8219,-1.81437 -3.2095,-1.93467 -1.5145,-0.12081 -3.0095,0.43384 -3.9696,1.66196 2.1149,-1.45866 3.533,2.64485 3.3623,5.4841 v 0 l -0.3598,5.98113 c -0.1139,1.82225 -1.4588,3.94982 -3.2829,4.79301 1.7098,1.05552 2.7901,3.32884 2.6847,5.15159 l -0.6719,11.17401 -0.5189,8.62925 c -0.1709,2.83976 -1.1807,6.5229 -4.2726,6.01094 0.7788,1.28971 2.1616,1.90197 3.664,1.85621 l -10e-5,-3.8e-4 v 0 c 0.5908,-0.0183 1.2002,-0.13793 1.7988,-0.35827 0.7052,-0.32629 1.2991,-0.85101 1.8367,-1.47558 -0.3461,0.56631 -0.7743,1.13019 -1.241,1.61779 2.4155,2.85944 6.4848,3.71711 8.3282,2.55968 -3.1757,-0.72 -4.1996,-4.82569 -4.2821,-7.73454 l 0.032,-0.52574 c 1.0311,1.6551 2.1702,3.19931 3.4326,4.45832 2.5616,2.55513 5.836,3.75383 8.9447,3.03325 1.0729,-0.15279 2.0905,-0.70321 2.8118,-1.62343 1.4839,-1.89198 1.1529,-4.62855 -0.7389,-6.11252 -1.8922,-1.48371 -4.6285,-1.15268 -6.1126,0.7391 -0.9819,1.25209 -1.4934,4.58734 -3.9766,3.24129 -2.9054,-1.57498 -4.0077,-9.61017 -3.8028,-13.02002 l 0.728,-12.10089 z m 29.5051,28.51968 c -3.0073,-4.97939 -12.6211,1.03667 -9.3548,6.42554 1.2466,2.05605 3.924,2.71279 5.9804,1.46628 2.056,-1.24626 2.7126,-3.92361 1.4663,-5.98004 -0.1999,-0.32937 -0.4364,-0.62278 -0.7013,-0.87825 -0.5727,0.29982 -1.0799,0.72949 -1.551,1.23017 1.17,-1.73739 2.5126,-3.08234 4.1604,-2.2637 z m 78.3877,-4.13768 c -4.3788,0.64585 -6.7062,3.23495 -4.2429,5.18557 1.3328,1.05558 2.5874,1.13512 3.8811,0.82812 z m -78.0781,6.75055 -0.2371,-0.0688 c 0.7143,2.50565 -0.2952,5.28023 -2.6301,6.69568 -0.061,0.0367 -0.1219,0.0717 -0.1837,0.10627 5.2634,1.55293 10.4522,3.08048 15.5086,4.55298 -1.9625,-1.24158 -3.654,-2.93519 -4.9398,-4.85915 -2.7056,-0.0788 -5.2344,-1.88666 -6.4406,-4.28572 z m -10.2558,-2.96313 c -1.2381,-0.35629 -2.4784,-0.71238 -3.7198,-1.06809 -0.1859,0.39173 -0.4172,0.76923 -0.6958,1.12462 -0.9386,1.19684 -2.2805,1.92338 -3.7629,2.20006 -2.0245,0.37769 -4.0173,0.15843 -5.8511,-0.53106 l -1.7266,1.08481 c -0.045,0.0287 -0.091,0.0563 -0.1381,0.0831 4.9974,1.46122 10.0022,2.93602 14.9685,4.40218 -1.2507,-2.32767 -0.7451,-5.29497 0.9258,-7.29558 z m -28.3588,-7.99905 c -1.8894,-0.51978 -3.7713,-1.03443 -5.6419,-1.54185 0.04,0.97253 0.1948,2.00863 0.3709,2.89008 0.1303,0.65315 0.2953,1.33008 0.5117,1.97555 l 2.3924,0.3964 c 0.3102,0.0515 0.6139,0.0406 0.8883,-0.12549 0.7801,-0.47146 1.1889,-1.9487 1.3498,-2.77804 0.053,-0.26976 0.095,-0.54266 0.1288,-0.81665"
           style="fill:#ffffff;fill-opacity:1;fill-rule:evenodd;stroke:none;stroke-width:0.640913"
           id="path50" />
      </g>
    </g>
  </g>
</svg>
